<svg xmlns="http://www.w3.org/2000/svg" viewBox="0 0 32 28"><defs><style>.cls-1{fill:#505050;fill-rule:evenodd;}.cls-2{fill:#fff;}</style></defs><title>Observaciones_1</title><g id="Capa_2" data-name="Capa 2"><g id="Bubble_Txt" data-name="Bubble Txt"><g id="Bubble"><path class="cls-1" d="M30,0H2A2,2,0,0,0,0,2V28l4-4H30a2,2,0,0,0,2-2V2A2,2,0,0,0,30,0Z"/></g><g id="Txt"><path class="cls-2" d="M23,7H9A1,1,0,0,0,9,9H23a1,1,0,0,0,0-2Zm-3,8H9a1,1,0,0,0,0,2H20a1,1,0,0,0,0-2ZM9,13h8a1,1,0,0,0,0-2H9a1,1,0,0,0,0,2Z"/></g></g></g></svg>